<svg width="36" height="44" viewBox="0 0 36 44" fill="none" xmlns="http://www.w3.org/2000/svg">
    <path fill-rule="evenodd" clip-rule="evenodd" d="M19.586 38c.27-.954.414-1.96.414-3 0-6.075-4.925-11-11-11-1.04 0-2.046.144-3 .414V5.431c0-1.804.456-3.157 1.368-4.06C8.28.458 9.635 0 11.434 0h8.36v12.949c0 2.155 1.095 3.232 3.286 3.232H36v16.388c0 1.804-.456 3.157-1.368 4.06-.9.914-2.255 1.371-4.066 1.371h-10.98zm2.507-25.108c0 .677.348 1.015 1.044 1.015h12.635c-.038-.338-.177-.677-.418-1.015-.24-.35-.557-.72-.95-1.109L24.24 1.58a7.127 7.127 0 0 0-1.102-.94 2.418 2.418 0 0 0-1.044-.432v12.685z" fill="#D2D9DA"/>
    <path d="M18 35a9 9 0 1 1-18 0 9 9 0 0 1 18 0z" fill="red"/>
    <path d="M5.467 32.879a1 1 0 1 1 1.414-1.414l5.657 5.657a1 1 0 1 1-1.414 1.414l-5.657-5.657z" fill="#fff"/>
    <path d="M5.467 38.535a1 1 0 0 1 0-1.414l5.657-5.657a1 1 0 0 1 1.414 1.414l-5.657 5.657a1 1 0 0 1-1.414 0z" fill="#fff"/>
</svg>
