<svg width="26" height="22" viewBox="0 0 26 22" fill="none" xmlns="http://www.w3.org/2000/svg">
    <path d="M15.168 10.515a2.686 2.686 0 0 1 2.637-2.182v.075l.008-.074-.004.074a2.606 2.606 0 0 1 2.566 2.183l-5.207-.076zm0 0H1.36v.003a.487.487 0 0 0 .077.97h13.732a2.682 2.682 0 0 0 5.27 0h4.148c.27 0 .489-.218.489-.486 0-.27-.22-.486-.49-.486h-9.417zm-6.874 5.23h-.075c-1.31 0-2.404.943-2.636 2.18h-4.15a.487.487 0 0 0-.478.485c0 .265.213.48.478.486h4.15a2.683 2.683 0 0 0 5.272 0h13.733a.487.487 0 0 0 .478-.486.487.487 0 0 0-.478-.485H10.855a2.686 2.686 0 0 0-2.561-2.18zM8.219.926c-1.31 0-2.404.943-2.636 2.18H1.434a.487.487 0 0 0-.489.485c0 .27.22.486.49.486h4.148a2.685 2.685 0 0 0 5.272 0h13.731c.27 0 .489-.217.489-.486a.487.487 0 0 0-.489-.486H10.855A2.686 2.686 0 0 0 8.219.925zm0 .971a1.696 1.696 0 1 1 0 3.391 1.696 1.696 0 1 1 0-3.39zm9.586 7.408c.948 0 1.704.756 1.704 1.696 0 .941-.756 1.695-1.704 1.695a1.695 1.695 0 1 1 0-3.39zm-9.586 7.412a1.696 1.696 0 1 1 0 3.39 1.695 1.695 0 1 1 0-3.39z" fill="#FF7558" stroke="#FF7558" stroke-width=".15"/>
</svg>
