<svg width="14" height="14" viewBox="0 0 14 14" fill="none" xmlns="http://www.w3.org/2000/svg">
    <circle cx="7" cy="7" r="6.25" fill="#2E7B8B" stroke="#2E7B8B" stroke-width="1.5"/>
    <path d="M4.124 7.87a.64.64 0 0 1-.116-.192.905.905 0 0 1-.043-.483.78.78 0 0 1 .078-.223.56.56 0 0 1 .135-.169.39.39 0 0 1 .177-.085.344.344 0 0 1 .19.02.438.438 0 0 1 .164.117L4.124 7.87zm0 0 1.832 2.037.037-.033-.037.034a.387.387 0 0 0 .323.14.425.425 0 0 0 .304-.194l3.33-4.794a.756.756 0 0 0 .128-.333.895.895 0 0 0-.026-.375.646.646 0 0 0-.172-.294.378.378 0 0 0-.274-.108.422.422 0 0 0-.325.202L6.207 8.524M4.124 7.87l2.083.654m0 0L4.709 6.855l1.498 1.669z" fill="#fff" stroke="#fff" stroke-width=".1"/>
</svg>
