<svg width="30" height="30" viewBox="0 0 30 30" fill="none" xmlns="http://www.w3.org/2000/svg">
    <circle cx="15" cy="15" r="15" fill="#A8EAF6"/>
    <path d="m8.993 16.055 3.46 3.452.118-.118-.118.118a.558.558 0 0 0 .79 0l.272-.272.122-.12-.122-.122-3.734-3.725a.557.557 0 1 0-.788.787z" fill="#1F3F48" stroke="#1F3F48" stroke-width=".342"/>
    <path d="m20.886 11.658.121.121-7.668 7.65-.077.076-.101-.037-.805-.288-.254-.091.191-.191 7.927-7.907a.558.558 0 0 1 .787 0m-.12.667.12-.666m-.12.666.12.121a.555.555 0 0 0 0-.787m-.12.666.12-.666" fill="#1F3F48" stroke="#1F3F48" stroke-width=".342"/>
</svg>
