<svg width="24" height="24" viewBox="0 0 24 24" fill="none" xmlns="http://www.w3.org/2000/svg">
    <g clip-path="url(#zf96fruh9a)">
        <path d="M22.888 1.808a.428.428 0 0 1 .32.438c-.214 3.793-.494 6.373-1.022 8.44-.529 2.072-1.306 3.627-2.509 5.374a.431.431 0 0 1-.314.183c-.128.012-.25.024-.367.038h.001a.428.428 0 0 1 .033.606l-.075-.067a8.15 8.15 0 0 1-.61.613l4.543-15.625zm0 0a.43.43 0 0 0-.492.226c-.02.04-.745 1.484-3.978 3.192m4.47-3.418-6.265 4.38m2.972 9.815a.33.33 0 0 1-.241.14 15.782 15.782 0 0 0-.56.06l-.224.03 1.025-.23zm0 0c2.396-3.477 3.085-6.178 3.513-13.762m-3.513 13.762 3.513-13.762m0 0a.328.328 0 0 0-.623-.163m.623.163-.623-.163m0 0c-.03.062-.772 1.521-4.023 3.238m4.023-3.238-4.023 3.238m-1.386 1.126c.055.406.164.802.325 1.178l.057-.122m-.382-1.056 1.2-.911a12.35 12.35 0 0 1-.766 2.09 4.359 4.359 0 0 1-.052-.123m-.382-1.056a.327.327 0 0 0-.453-.255m.453.255L10.08 8.863m7.378-1.365a4.444 4.444 0 0 1-.283-1.069.428.428 0 0 0-.591-.334l.039.092m.835 1.31c.298-.641.54-1.308.722-1.992a.428.428 0 0 1 .238-.279m-1.795.961c-.86.366-1.795.715-2.78 1.036m2.78-1.036-.04-.092a34.01 34.01 0 0 1-2.771 1.033m2.81-.94L9.839 9.01m8.58-3.784-.003.002.047.088m-.044-.09.004-.001.04.091m-4.62 1.907a20.217 20.217 0 0 0-3.762 1.64m3.762-1.64-.03-.095m.03.095-.03-.095M10.08 8.863a.328.328 0 0 0-.148.18m.148-.18-.51 1.138c.128-.305.249-.625.362-.959m3.88-1.914a20.32 20.32 0 0 0-3.781 1.648h-.001a.428.428 0 0 0-.192.234m0 0 .094.032m0 0-.094-.032m0 0c-.086.25-.175.493-.268.727m.268-.727-.928.474M1.016 22.751a16.388 16.388 0 0 1 2.236-2.943c.565-4.675 2.381-7.933 5.715-10.241M1.016 22.75 9.58 9.871a.428.428 0 0 0-.01-.134M1.016 22.75a.913.913 0 0 0 .278 1.221l-.278-1.221zm7.95-13.184a.328.328 0 0 1 .515.296m-.514-.296-.057-.083m.057.083-.057-.083m.57.38-.008.113.046-.11-.037-.004zm0 0 .038.002.052-.13m0 0a.428.428 0 0 0-.66-.252m0 0c-3.353 2.322-5.181 5.599-5.753 10.28A16.486 16.486 0 0 0 .93 22.7a1.013 1.013 0 0 0 .308 1.355l.002.001a.986.986 0 0 0 .532.157h15a.428.428 0 0 0 0-.856H2.857a14.982 14.982 0 0 1 1.851-2.348L8.91 9.484zm5.34 2.632v.1l.022.002a.131.131 0 0 1 .086.053v.001a.135.135 0 0 1-.028.188c-.914.67-1.865 1.34-2.706 1.932l-.014.01C7.652 17.19 3.89 19.84 1.887 23.29a.133.133 0 0 1-.184.046.154.154 0 0 1-.035-.203l.001-.002c2.03-3.484 5.792-6.136 9.8-8.96l.044-.03c.827-.583 1.761-1.241 2.657-1.899a.134.134 0 0 1 .08-.027v-.1zm0 0a.235.235 0 0 0-.14.046m.14-.046c.012 0 .025.001.037.003l-.176.043m0 0c-.895.658-1.829 1.315-2.656 1.898l-.043.03 2.699-1.928zm3.035-3.477c-.03-.036-.467-.564-.715-1.599-.742.3-1.53.588-2.353.856a19.603 19.603 0 0 0-3.483 1.5 13.432 13.432 0 0 1-1.102 2.404.428.428 0 0 1-.794-.176v-.002a9.36 9.36 0 0 1-.023-.944c-2.423 1.93-3.875 4.512-4.5 8.012 1.968-1.859 4.347-3.535 6.8-5.264l.126-.088c.804-.567 1.701-1.2 2.561-1.831a.99.99 0 0 1 1.388.216.993.993 0 0 1-.215 1.38c-.92.676-1.875 1.35-2.719 1.943-2.362 1.664-4.638 3.268-6.492 5.004 1.548-.106 3.877-.33 6.155-.796 2.423-.496 4.767-1.26 6.058-2.428.013-.01.024-.021.036-.032-.292-.08-.573-.167-.839-.262a.428.428 0 0 1 .02-.813h.003a11.897 11.897 0 0 1 2.026-.356c2.064-3.045 2.766-5.559 3.186-11.852-.63.632-1.661 1.465-3.313 2.353m-1.81 2.775.075-.065-.075.065zm0 0a.428.428 0 0 0 .698-.066v-.001a12.44 12.44 0 0 0 1.112-2.708m0 0-.038.02-.047-.088.096.026a6.22 6.22 0 0 1-.011.042z" fill="#FF7558" stroke="#FF7558" stroke-width=".2"/>
    </g>
    <defs>
        <clipPath id="zf96fruh9a">
            <path fill="#fff" d="M0 0h24v24H0z"/>
        </clipPath>
    </defs>
</svg>
