<svg width="22" height="22" viewBox="0 0 22 22" fill="none" xmlns="http://www.w3.org/2000/svg">
    <circle cx="11" cy="11" r="11" fill="#10123A"/>
    <rect x="9.75" y="4.75" width="2.5" height="7.5" rx="1.25" fill="#fff" stroke="#fff" stroke-width=".5"/>
    <path d="M11 17.25c.386 0 .704-.235.915-.55.212-.319.335-.743.335-1.2 0-.457-.123-.881-.335-1.2-.21-.316-.53-.55-.915-.55-.386 0-.704.235-.915.55-.212.319-.335.743-.335 1.2 0 .457.123.881.335 1.2.21.316.53.55.915.55z" fill="#fff" stroke="#fff" stroke-width=".5"/>
</svg>
