<svg width="30" height="30" viewBox="0 0 30 30" fill="none" xmlns="http://www.w3.org/2000/svg">
    <path d="M10.572 3.9A11.95 11.95 0 1 1 19.428 26.1 11.95 11.95 0 0 1 10.572 3.9zm-2.77 18.113A10.05 10.05 0 1 0 22.198 7.987 10.05 10.05 0 0 0 7.801 22.013z" fill="#10123A" stroke="#fff" stroke-width=".1"/>
    <path d="M14.57 17.024a1.3 1.3 0 0 1-1.002-1.542l1.248-5.869a1.3 1.3 0 0 1 2.543.541l-1.248 5.869a1.3 1.3 0 0 1-1.541 1.001zM13.595 21.366a1.5 1.5 0 1 0 .624-2.934 1.5 1.5 0 0 0-.623 2.934z" fill="#10123A"/>
</svg>
