<svg width="15" height="15" viewBox="0 0 15 15" fill="none" xmlns="http://www.w3.org/2000/svg">
    <circle cx="7.5" cy="7.5" r="7.5" fill="#C7CBCF"/>
    <path d="M8.126 8.045c-.03.341-.08.596-.151.763a.381.381 0 0 1-.38.25.46.46 0 0 1-.095-.012.461.461 0 0 1-.095.012.382.382 0 0 1-.38-.25c-.07-.167-.12-.422-.15-.763l-.163-2.636c-.03-.514-.045-.883-.045-1.107 0-.304.073-.542.22-.713a.727.727 0 0 1 .578-.256c.013 0 .023.004.035.004.012 0 .022-.004.034-.004.24 0 .432.086.579.256.146.171.22.409.22.713 0 .224-.016.593-.046 1.107l-.161 2.636zm-.631 1.976c.232 0 .43.08.593.24.164.16.246.353.246.58 0 .257-.083.459-.249.605a.847.847 0 0 1-.579.22.87.87 0 0 1-.587-.217c-.168-.145-.25-.348-.25-.608 0-.228.08-.421.24-.581a.801.801 0 0 1 .587-.24" fill="#fff"/>
</svg>
