<svg width="98" height="108" viewBox="0 0 98 108" fill="none" xmlns="http://www.w3.org/2000/svg">
    <path d="M22.932 58.393c-1.11 0-2.042-.389-2.793-1.165-.751-.81-1.127-1.731-1.127-2.767 0-1.1.36-2.038 1.078-2.815.751-.81 1.699-1.214 2.842-1.214h24.892c1.078 0 1.993.405 2.744 1.214.751.776 1.127 1.715 1.127 2.815 0 1.003-.376 1.91-1.127 2.718-.751.81-1.666 1.214-2.744 1.214H22.932zm0 12.329c-1.11 0-2.042-.388-2.793-1.165-.751-.777-1.127-1.683-1.127-2.718 0-1.1.36-2.039 1.078-2.816.751-.809 1.699-1.213 2.842-1.213h17.395c1.078 0 1.993.388 2.744 1.165.751.776 1.127 1.731 1.127 2.864 0 1.035-.376 1.941-1.127 2.718-.751.776-1.666 1.165-2.744 1.165H22.932zm47.579.582c-2.189 0-4.165-.517-5.929-1.553a12.612 12.612 0 0 1-4.263-4.223c-1.045-1.747-1.568-3.689-1.568-5.825 0-2.168.523-4.126 1.568-5.873a12.188 12.188 0 0 1 4.263-4.174c1.764-1.036 3.74-1.553 5.929-1.553 2.123 0 4.067.517 5.831 1.553 1.797 1.035 3.201 2.427 4.214 4.174 1.045 1.748 1.568 3.705 1.568 5.873 0 2.136-.523 4.078-1.568 5.825-1.013 1.747-2.417 3.155-4.214 4.223-1.764 1.035-3.708 1.553-5.831 1.553zM16.317 108h65.366c5.227 0 9.245-1.391 12.054-4.174C96.579 101.043 98 97.079 98 91.934V45.48c0-5.145-1.421-9.109-4.263-11.892-2.81-2.783-6.827-4.174-12.054-4.174H16.317c-5.227 0-9.261 1.391-12.103 4.174C1.404 36.372 0 40.336 0 45.481v46.452c0 5.146 1.405 9.11 4.214 11.893C7.056 106.609 11.09 108 16.317 108zm-6.125-86.254h77.616c-.261-2.427-1.11-4.32-2.548-5.68-1.437-1.39-3.56-2.087-6.37-2.087H19.11c-2.81 0-4.933.696-6.37 2.088-1.437 1.359-2.287 3.252-2.548 5.679zm9.163-14.61h59.29c-.196-2.266-1.013-4.013-2.45-5.243C74.79.631 72.863 0 70.413 0H27.587c-2.417 0-4.345.631-5.782 1.893-1.437 1.23-2.254 2.977-2.45 5.242z" fill="#FF7558"/>
</svg>
