<svg width="14" height="14" xmlns="http://www.w3.org/2000/svg">

 <g>
  <title>background</title>
  <rect fill="none" id="canvas_background" height="16" width="16" y="-1" x="-1"/>
 </g>
 <g>
  <title>Layer 1</title>
  <circle id="svg_1" fill="#ffffff" r="7" cy="7" cx="7"/>
  <rect id="svg_3" stroke-width="0.333" stroke="#FF7558" fill="#FF7558" rx="0.803" height="4.788" width="1.606" y="2.01925" x="6.197"/>
  <path id="svg_4" stroke-width="0.333" stroke="#FF7558" fill="#FF7558" d="m7.000111,10.819042c0.249,0 0.453,-0.151 0.589,-0.354c0.135,-0.204 0.214,-0.476 0.214,-0.767c0,-0.292 -0.079,-0.564 -0.214,-0.768c-0.136,-0.202 -0.34,-0.354 -0.59,-0.354c-0.248,0 -0.453,0.152 -0.588,0.354a1.396,1.396 0 0 0 -0.214,0.768c0,0.291 0.078,0.563 0.214,0.767c0.135,0.203 0.34,0.354 0.589,0.354z"/>
 </g>
</svg>