<svg width="28" height="23" viewBox="0 0 28 23" fill="none" xmlns="http://www.w3.org/2000/svg">
    <path d="M3.953 19.945c-1.031 0-1.812-.261-2.344-.785-.523-.523-.785-1.3-.785-2.332V3.246c0-1.031.262-1.808.785-2.332C2.141.391 2.922.13 3.953.13h15.55c1.032 0 1.81.266 2.333.797.531.523.797 1.297.797 2.32v6.879a2.983 2.983 0 0 0-.27-.012 2.728 2.728 0 0 0-.527 0c-.086 0-.191.004-.316.012V6.937c0-.648-.172-1.136-.516-1.464-.344-.336-.828-.504-1.453-.504H3.895c-.641 0-1.13.168-1.465.504-.328.328-.493.816-.493 1.465v9.925c0 .649.165 1.137.493 1.465.336.336.824.504 1.465.504h12.023c.055.195.121.383.2.563.085.187.179.37.28.55H3.953zM9.508 8.871c-.164 0-.274-.023-.328-.07-.047-.055-.07-.16-.07-.317v-.656c0-.156.023-.258.07-.305.054-.046.164-.07.328-.07h.644c.164 0 .27.024.317.07.054.047.082.149.082.305v.656c0 .157-.028.262-.082.317-.047.047-.153.07-.317.07h-.644zm3.785 0c-.156 0-.262-.023-.316-.07-.047-.055-.07-.16-.07-.317v-.656c0-.156.023-.258.07-.305.054-.046.16-.07.316-.07h.656c.164 0 .27.024.317.07.054.047.082.149.082.305v.656c0 .157-.028.262-.082.317-.047.047-.153.07-.317.07h-.656zm3.809 0c-.165 0-.274-.023-.329-.07-.046-.055-.07-.16-.07-.317v-.656c0-.156.024-.258.07-.305.055-.046.165-.07.329-.07h.644c.156 0 .262.024.317.07.054.047.082.149.082.305v.656c0 .157-.028.262-.082.317-.055.047-.16.07-.317.07h-.644zM5.71 12.598c-.164 0-.274-.024-.328-.07-.047-.048-.07-.15-.07-.305v-.645c0-.164.023-.27.07-.316.054-.047.164-.07.328-.07h.644c.165 0 .27.023.317.07.055.047.082.152.082.316v.645c0 .156-.027.257-.082.304-.047.047-.152.07-.317.07h-.644zm3.797 0c-.164 0-.274-.024-.328-.07-.047-.048-.07-.15-.07-.305v-.645c0-.164.023-.27.07-.316.054-.047.164-.07.328-.07h.644c.164 0 .27.023.317.07.054.047.082.152.082.316v.645c0 .156-.028.257-.082.304-.047.047-.153.07-.317.07h-.644zm3.785 0c-.156 0-.262-.024-.316-.07-.047-.048-.07-.15-.07-.305v-.645c0-.164.023-.27.07-.316.054-.047.16-.07.316-.07h.656c.164 0 .27.023.317.07.054.047.082.152.082.316v.645c0 .156-.028.257-.082.304-.047.047-.153.07-.317.07h-.656zm-7.582 3.75c-.164 0-.274-.024-.328-.07-.047-.055-.07-.16-.07-.317v-.656c0-.157.023-.258.07-.305.054-.047.164-.07.328-.07h.644c.165 0 .27.023.317.07.055.047.082.148.082.305v.656c0 .156-.027.262-.082.316-.047.047-.152.07-.317.07h-.644zm3.797 0c-.164 0-.274-.024-.328-.07-.047-.055-.07-.16-.07-.317v-.656c0-.157.023-.258.07-.305.054-.047.164-.07.328-.07h.644c.164 0 .27.023.317.07.054.047.082.148.082.305v.656c0 .156-.028.262-.082.316-.047.047-.153.07-.317.07h-.644zm3.785 0c-.156 0-.262-.024-.316-.07-.047-.055-.07-.16-.07-.317v-.656c0-.157.023-.258.07-.305.054-.047.16-.07.316-.07h.656c.164 0 .27.023.317.07.054.047.082.148.082.305v.656c0 .156-.028.262-.082.316-.047.047-.153.07-.317.07h-.656zm8.8 5.754a5.147 5.147 0 0 1-2.097-.434 5.485 5.485 0 0 1-1.734-1.172c-.5-.5-.89-1.078-1.172-1.734a5.214 5.214 0 0 1-.422-2.098c0-.984.246-1.887.738-2.707a5.625 5.625 0 0 1 1.969-1.98 5.184 5.184 0 0 1 2.719-.739c.992 0 1.898.246 2.718.739a5.655 5.655 0 0 1 1.97 1.968c.491.82.738 1.727.738 2.72 0 .741-.145 1.44-.434 2.097a5.483 5.483 0 0 1-1.172 1.734c-.5.5-1.078.89-1.734 1.172a5.119 5.119 0 0 1-2.086.434zm-2.706-4.641h2.742a.55.55 0 0 0 .387-.152.529.529 0 0 0 .164-.387v-3.645a.492.492 0 0 0-.164-.375.55.55 0 0 0-.387-.152.55.55 0 0 0-.387.152.51.51 0 0 0-.152.375v3.106h-2.203a.529.529 0 0 0-.387.164.51.51 0 0 0-.152.375c0 .148.05.277.152.387a.55.55 0 0 0 .387.152z" fill="#FF7558"/>
</svg>
