<svg width="22" height="18" viewBox="0 0 22 18" fill="none" xmlns="http://www.w3.org/2000/svg">
    <path d="M5.105 6.51h5.143a.636.636 0 0 0 .498-.22.737.737 0 0 0 .205-.52.715.715 0 0 0-.205-.52.65.65 0 0 0-.498-.21H5.105a.661.661 0 0 0-.508.21.735.735 0 0 0-.195.52c0 .2.065.373.195.52.137.147.306.22.508.22zm0 2.45h3.69a.67.67 0 0 0 .497-.21.737.737 0 0 0 .205-.52c0-.2-.068-.373-.205-.52a.655.655 0 0 0-.498-.22h-3.69a.647.647 0 0 0-.507.22.758.758 0 0 0-.195.52c0 .2.065.373.195.52a.68.68 0 0 0 .508.21zm10.297.16a2.09 2.09 0 0 0 1.552-.66c.436-.447.654-.983.654-1.61a2.19 2.19 0 0 0-.654-1.6 2.075 2.075 0 0 0-1.552-.67c-.612 0-1.135.223-1.571.67-.43.44-.645.973-.645 1.6 0 .627.215 1.163.645 1.61.436.44.96.66 1.571.66zM3.212 18h15.577c1.047 0 1.845-.28 2.391-.84.547-.56.82-1.37.82-2.43V3.27c0-1.06-.273-1.87-.82-2.43C20.634.28 19.836 0 18.79 0H3.21C2.171 0 1.373.28.82.84.273 1.4 0 2.21 0 3.27v11.46c0 1.06.273 1.87.82 2.43.553.56 1.35.84 2.391.84zm.224-2.32c-.384 0-.677-.097-.879-.29-.201-.2-.302-.507-.302-.92V3.53c0-.413.1-.72.302-.92.202-.2.495-.3.879-.3h15.138c.377 0 .667.1.869.3.208.2.312.507.312.92v10.94c0 .413-.104.72-.312.92-.202.193-.492.29-.869.29H3.436z" fill="#fff"/>
</svg>
