<svg width="4" height="18" viewBox="0 0 4 18" fill="none" xmlns="http://www.w3.org/2000/svg">
    <mask id="w0zvfvaiia" fill="#fff">
        <path d="M.487 10.177c.07.737.19 1.285.356 1.647.167.36.464.54.893.54.08 0 .152-.013.223-.027.073.014.144.027.225.027.427 0 .725-.18.891-.54.166-.362.284-.91.357-1.647l.38-5.695c.071-1.11.107-1.906.107-2.39 0-.657-.171-1.17-.516-1.54C3.058.184 2.603 0 2.041 0c-.03 0-.052.007-.082.008C1.931.007 1.91 0 1.88 0 1.316 0 .863.184.518.552.173.922 0 1.435 0 2.092c0 .484.035 1.28.107 2.39l.38 5.695z"/>
    </mask>
    <path d="M.487 10.177c.07.737.19 1.285.356 1.647.167.36.464.54.893.54.08 0 .152-.013.223-.027.073.014.144.027.225.027.427 0 .725-.18.891-.54.166-.362.284-.91.357-1.647l.38-5.695c.071-1.11.107-1.906.107-2.39 0-.657-.171-1.17-.516-1.54C3.058.184 2.603 0 2.041 0c-.03 0-.052.007-.082.008C1.931.007 1.91 0 1.88 0 1.316 0 .863.184.518.552.173.922 0 1.435 0 2.092c0 .484.035 1.28.107 2.39l.38 5.695z" fill="#FF7558"/>
    <path d="m.843 11.824-.273.124v.002l.273-.126zm1.116.513.059-.294-.06-.012-.06.012.06.294zm1.116-.513.273.125-.273-.125zm.357-1.647.298.029.001-.01-.3-.02zm.38-5.695.3.02-.3-.02zM3.403.552l.22-.204h-.001l-.219.204zM1.96.008l-.012.3h.024l-.012-.3zM.518.552.298.347l.22.205zm-.41 3.93-.3.02.3-.02zm.08 5.723c.072.748.196 1.336.382 1.743l.546-.249c-.144-.316-.26-.825-.33-1.551l-.598.057zm.383 1.745c.105.226.258.41.465.536.205.124.443.178.7.178v-.6a.737.737 0 0 1-.39-.092.6.6 0 0 1-.23-.275l-.545.253zm1.165.714c.111 0 .207-.018.283-.033l-.12-.588a.798.798 0 0 1-.163.02v.6zm.164-.033c.076.015.172.033.284.033v-.6a.83.83 0 0 1-.166-.021l-.118.588zm.284.033c.256 0 .493-.054.699-.178.207-.126.36-.31.465-.537l-.545-.251a.598.598 0 0 1-.23.274.736.736 0 0 1-.39.092v.6zm1.164-.715c.187-.408.31-.996.382-1.743l-.597-.059c-.071.728-.185 1.236-.33 1.551l.545.25zm.383-1.752.38-5.695-.598-.04-.38 5.694.598.04zm.38-5.696c.071-1.11.108-1.915.108-2.409h-.6c0 .473-.035 1.261-.106 2.371l.599.038zm.108-2.409c0-.71-.186-1.305-.597-1.744l-.438.41c.278.297.435.728.435 1.334h.6zM3.622.347C3.212-.089 2.676-.3 2.042-.3v.6c.49 0 .86.157 1.142.458l.438-.41zM2.042-.3c-.038 0-.069.004-.083.006l-.012.002.024.6c.033-.002.062-.006.07-.007.012-.002.007-.001 0-.001v-.6zm-.07.008-.01-.002C1.947-.296 1.916-.3 1.879-.3v.6h-.001c.007.002.037.006.069.008l.025-.6zM1.879-.3C1.243-.3.707-.09.3.347l.438.41C1.017.457 1.388.3 1.879.3v-.6zM.3.348C-.113.788-.3 1.383-.3 2.093h.6c0-.605.158-1.037.437-1.336L.298.347zM-.3 2.093c0 .494.036 1.298.108 2.409l.599-.039C.335 3.353.3 2.566.3 2.093h-.6zm.108 2.41.38 5.693.598-.04-.38-5.694-.598.04z" fill="#fff" mask="url(#w0zvfvaiia)"/>
    <mask id="dhpngyoqrb" fill="#fff">
        <path d="M1.973 14.445c-.546 0-1.01.173-1.395.517-.385.345-.578.763-.578 1.255 0 .554.196.99.583 1.308.39.317.844.475 1.363.475.528 0 .988-.156 1.382-.47.394-.312.59-.75.59-1.313 0-.491-.188-.91-.564-1.254-.377-.345-.837-.518-1.381-.518"/>
    </mask>
    <path d="M1.973 14.445c-.546 0-1.01.173-1.395.517-.385.345-.578.763-.578 1.255 0 .554.196.99.583 1.308.39.317.844.475 1.363.475.528 0 .988-.156 1.382-.47.394-.312.59-.75.59-1.313 0-.491-.188-.91-.564-1.254-.377-.345-.837-.518-1.381-.518" fill="#FF7558"/>
    <path d="m.578 14.962-.2-.224.2.224zm.005 2.563-.19.232.19-.233zm2.745.006-.186-.235.186.235zm.026-2.568-.203.22.203-.22zm-1.38-.818c-.616 0-1.152.197-1.596.593l.4.448c.327-.293.719-.44 1.195-.44v-.6zm-1.596.594c-.444.398-.678.896-.678 1.477h.6c0-.4.153-.74.478-1.03l-.4-.447zM-.3 16.216c0 .634.228 1.16.693 1.54l.38-.464c-.31-.253-.473-.6-.473-1.076h-.6zm.694 1.541c.445.362.966.543 1.552.543v-.6c-.453 0-.84-.136-1.173-.408l-.38.465zm1.552.543c.592 0 1.12-.177 1.57-.535l-.374-.47a1.856 1.856 0 0 1-1.196.405v.6zm1.569-.534c.474-.377.704-.908.704-1.549h-.6c0 .484-.165.83-.477 1.079l.373.47zm.704-1.549c0-.579-.227-1.076-.663-1.476l-.405.443c.317.29.468.63.468 1.033h.6zm-.663-1.475c-.435-.4-.97-.597-1.583-.597v.6c.475 0 .86.148 1.178.439l.405-.442z" fill="#fff" mask="url(#dhpngyoqrb)"/>
</svg>
