<svg width="11" height="11" viewBox="0 0 11 11" fill="none" xmlns="http://www.w3.org/2000/svg">
    <path d="M9.668 5.498c0 .216-.014.433-.043.646l.023-.177c-.057.426-.17.841-.337 1.236l.067-.159c-.162.381-.372.74-.625 1.068l.104-.134c-.255.33-.55.625-.88.88l.134-.104a4.913 4.913 0 0 1-1.068.625l.159-.067c-.396.166-.811.28-1.236.337l.178-.023a4.944 4.944 0 0 1-1.292 0l.177.023a4.862 4.862 0 0 1-1.236-.337l.159.067a4.868 4.868 0 0 1-1.068-.625l.134.104a4.934 4.934 0 0 1-.88-.88l.104.134a4.913 4.913 0 0 1-.625-1.068l.067.159a4.887 4.887 0 0 1-.337-1.236l.023.177a4.944 4.944 0 0 1 0-1.292l-.023.178c.057-.426.17-.841.337-1.236l-.067.159c.162-.381.373-.74.625-1.068l-.104.134c.255-.33.55-.625.88-.88l-.134.104a4.913 4.913 0 0 1 1.068-.625c-.053.022-.107.044-.159.067.396-.167.811-.28 1.236-.337l-.177.023a4.944 4.944 0 0 1 1.292 0l-.178-.023c.426.057.841.17 1.236.337l-.159-.067c.381.162.74.372 1.068.625l-.134-.104c.33.255.625.55.88.88l-.104-.134c.253.328.462.687.625 1.068a22.917 22.917 0 0 0-.067-.159c.167.396.28.811.337 1.236l-.023-.178c.029.214.042.43.043.646 0 .171.074.35.195.47a.68.68 0 0 0 .47.195.67.67 0 0 0 .47-.195.69.69 0 0 0 .195-.47 6.03 6.03 0 0 0-.083-.935 5.398 5.398 0 0 0-.904-2.205 6.068 6.068 0 0 0-.563-.686 5.87 5.87 0 0 0-.67-.581A5.446 5.446 0 0 0 4.906.036c-.307.038-.61.086-.908.17A5.751 5.751 0 0 0 2.51.883c-.45.296-.866.654-1.21 1.07-.19.231-.369.472-.523.729a6.022 6.022 0 0 0-.392.806 5.345 5.345 0 0 0-.369 1.63A5.444 5.444 0 0 0 .16 6.817a5.981 5.981 0 0 0 .632 1.522c.279.46.628.888 1.03 1.246.406.359.858.67 1.352.894.275.124.555.236.847.317.298.083.601.132.908.167.57.068 1.151.027 1.714-.087a5.412 5.412 0 0 0 1.542-.579 6.013 6.013 0 0 0 1.28-.99c.374-.39.7-.84.941-1.326.246-.495.43-1.023.514-1.57.047-.303.079-.607.08-.914 0-.17-.074-.35-.195-.47a.68.68 0 0 0-.47-.195.67.67 0 0 0-.667.666z" fill="#FF7558"/>
    <path d="M4.834 3.008v3.217c0 .17.074.348.195.47a.68.68 0 0 0 .47.194.67.67 0 0 0 .47-.195.69.69 0 0 0 .195-.47V3.007a.685.685 0 0 0-.195-.469.68.68 0 0 0-.47-.195.67.67 0 0 0-.47.195.688.688 0 0 0-.195.47zM5.5 8.654c.17 0 .348-.075.469-.195a.68.68 0 0 0 .195-.47.67.67 0 0 0-.195-.47.69.69 0 0 0-.47-.195.685.685 0 0 0-.47.195.68.68 0 0 0-.195.47.67.67 0 0 0 .195.47c.13.12.29.195.47.195z" fill="#FF7558"/>
</svg>
